<svg version="1" xmlns="http://www.w3.org/2000/svg" width="933.333" height="933.333" viewBox="0 0 700.000000 700.000000"><path d="M58.9 127.9c-.1.4-.3 93.1-.4 206.1-.1 113-.5 208.6-.9 212.5-2.9 31.8-9.7 50.5-22.1 60.9-7.8 6.4-24.3 12.8-33.3 12.8l-2.2.1.2 24.5.3 24.6 5.8-.3c3.2-.1 6.8-.4 8-.6 1.2-.2 4.3-.6 6.9-.9 11.8-1.3 29.1-6.6 39.1-11.9 31.4-16.8 47.8-46.9 54.4-99.7.3-3 .8-100.7 1-217.1l.4-211.5H87.5c-15.7 0-28.6.2-28.6.5zM231.2 128c-.4.3-.8 96-.8 212.7l.1 212.2 136.2-.1c102.7 0 136.4-.3 137.1-1.1.4-.7.8-11.6.8-24.2l-.1-23-107-.2c-58.9-.1-107.6-.2-108.2-.2-1-.1-1.3-16.2-1.3-77v-76.9l100.4.1c55.1 0 100.7-.3 101.2-.6 1.1-.7 1.3-46.2.2-47.3-.5-.4-46-.7-101.3-.7H288v-62.8c0-59.2.1-62.9 1.8-62.9.9 0 48.5-.1 105.7-.1h104l-.2-23.7c0-13-.2-23.9-.2-24.2-.1-.8-266.9-.7-267.9 0z"/></svg>